<?xml version="1.0" encoding="utf-8"?>
<!-- Generator: Adobe Illustrator 27.9.1, SVG Export Plug-In . SVG Version: 6.00 Build 0)  -->
<svg version="1.1" id="Layer_1" xmlns="http://www.w3.org/2000/svg" xmlns:xlink="http://www.w3.org/1999/xlink" x="0px" y="0px"
	 viewBox="0 0 192.7 65.1" style="enable-background:new 0 0 192.7 65.1;" xml:space="preserve">
<style type="text/css">
	.st0{fill:#FDDE00;}
	.st1{fill:#0C2444;}
</style>
<path class="st0" d="M26.2,37.6l-4.6-4c-0.3-0.2-0.7-0.1-0.8,0.3l-1.6,9.9c-0.1,0.7-1.2,0.7-1.2-0.1l-0.3-14.3
	c0-1.7,2.2-2.4,3.2-1.1l6.2,8.4C27.5,37.4,26.7,38.1,26.2,37.6"/>
<path class="st0" d="M14.1,35.9l-0.4-6.1c0-0.4-0.5-0.6-0.7-0.3l-8.2,5.9C4.2,35.8,3.5,35,4,34.4l9.9-10.3c1.2-1.2,3.3-0.2,3,1.5
	l-1.6,10.3C15.2,36.6,14.2,36.6,14.1,35.9"/>
<path class="st0" d="M6.8,26.1l4-4.6c0.2-0.3,0.1-0.7-0.3-0.8l-9.9-1.6C-0.1,19.1,0,18,0.7,18L15,17.7c1.7,0,2.4,2.2,1.1,3.2L7.7,27
	C7.1,27.4,6.4,26.7,6.8,26.1"/>
<path class="st0" d="M8.6,14.1l6.1-0.4c0.4,0,0.6-0.5,0.3-0.7L9.2,4.8C8.7,4.2,9.5,3.5,10,4l10.3,9.9c1.2,1.2,0.2,3.3-1.5,3
	L8.6,15.3C7.8,15.2,7.9,14.1,8.6,14.1"/>
<path class="st0" d="M18.4,6.8l4.6,4c0.3,0.2,0.7,0.1,0.8-0.3l1.6-9.9c0.1-0.7,1.2-0.7,1.2,0.1L26.8,15c0,1.7-2.2,2.4-3.2,1.1
	l-6.2-8.4C17,7,17.8,6.3,18.4,6.8"/>
<path class="st0" d="M30.4,8.6l0.4,6.1c0,0.4,0.5,0.6,0.7,0.3l8.2-5.9c0.6-0.5,1.3,0.3,0.8,0.9l-9.9,10.3c-1.2,1.2-3.3,0.2-3-1.5
	l1.6-10.3C29.3,7.8,30.4,7.8,30.4,8.6"/>
<path class="st0" d="M37.7,18.3l-4,4.6c-0.2,0.3-0.1,0.7,0.3,0.8l9.9,1.6c0.7,0.1,0.7,1.2-0.1,1.2l-14.3,0.3c-1.7,0-2.4-2.2-1.1-3.2
	l8.4-6.2C37.4,17,38.2,17.8,37.7,18.3"/>
<path class="st0" d="M35.9,30.4l-6.1,0.4c-0.4,0-0.6,0.5-0.3,0.7l5.9,8.2c0.5,0.6-0.3,1.3-0.9,0.8l-10.3-9.9c-1.2-1.2-0.2-3.3,1.5-3
	L36,29.2C36.7,29.3,36.6,30.3,35.9,30.4"/>
<path class="st1" d="M176,22.1V11.9h5.8c2.1,0,3.6,0.4,4.6,1.3c1,0.9,1.5,2.2,1.5,3.8c0,1.7-0.5,2.9-1.5,3.8c-1,0.9-2.5,1.3-4.6,1.3
	L176,22.1z M171.3,7.8v29.3h4.7V26.2h6.5c2.1,0,3.9-0.4,5.4-1.1c1.5-0.7,2.7-1.8,3.6-3.2c0.9-1.4,1.3-3,1.3-4.9
	c0-1.9-0.4-3.6-1.3-4.9c-0.9-1.4-2-2.4-3.6-3.1c-1.5-0.7-3.3-1.1-5.4-1.1L171.3,7.8L171.3,7.8L171.3,7.8z M153,11.9l4.8,13.7h-9.6
	L153,11.9L153,11.9z M155.9,7.8h-5.7l-11,29.3h4.9l2.8-7.7h12.3l2.8,7.7h5L155.9,7.8L155.9,7.8L155.9,7.8z M127.9,7.8l-5.9,16.9
	l-2.1,7h-0.1l-2-7L112,7.8h-7.1v29.3h4.4V20.2l-0.4-8.1h0l8.9,25h3.9l8.9-25h0l-0.4,8.1v16.9h4.4V7.8L127.9,7.8L127.9,7.8z
	 M81.2,8.6c-1.7,0.8-3,1.9-3.9,3.2c-0.9,1.3-1.4,2.8-1.4,4.5c0,1.3,0.3,2.4,0.8,3.4c0.6,1,1.4,1.9,2.6,2.6c1.2,0.7,2.6,1.3,4.4,1.6
	l6.4,1.5c1.6,0.4,2.6,0.9,3.2,1.5c0.6,0.7,0.9,1.4,0.9,2.3c0,0.9-0.3,1.6-0.8,2.3c-0.5,0.6-1.3,1.1-2.3,1.4c-1,0.3-2.2,0.5-3.5,0.5
	c-1.5,0-2.9-0.2-4.2-0.7c-1.3-0.4-2.4-1.1-3.3-1.9c-0.9-0.8-1.7-1.7-2.4-2.8l-3.3,3.3c0.8,1.2,1.8,2.2,3.1,3.1
	c1.2,0.9,2.7,1.6,4.3,2.2c1.7,0.5,3.5,0.8,5.6,0.8c2.3,0,4.4-0.4,6.1-1.1s3.1-1.7,4.1-3.1c1-1.3,1.5-2.9,1.5-4.7
	c0-2-0.6-3.6-1.8-4.8c-1.2-1.3-3.2-2.2-6-2.8l-5.9-1.3c-1.7-0.4-2.9-0.9-3.6-1.6c-0.6-0.7-1-1.5-1-2.4c0-0.8,0.2-1.5,0.6-2.2
	c0.4-0.6,1.1-1.1,2-1.5c0.9-0.4,2.1-0.6,3.5-0.6c1.9,0,3.6,0.4,5,1.1c1.4,0.8,2.7,2,3.8,3.7l3.2-3.1c-1.3-1.9-3-3.4-4.9-4.4
	c-1.9-1-4.2-1.5-6.8-1.5C84.9,7.4,82.9,7.8,81.2,8.6L81.2,8.6L81.2,8.6z M71.8,37.1V33H54.8v-8.7h12.9v-4H54.8v-8.4h16.5V7.8H50
	v29.3C50,37.1,71.8,37.1,71.8,37.1z"/>
<path class="st1" d="M172.1,47.5v0.7h3.6v-0.7H172.1z M173.1,46.4v4.9c0,0.3,0.1,0.6,0.2,0.8c0.1,0.2,0.3,0.3,0.5,0.4
	s0.4,0.1,0.7,0.1c0.3,0,0.5,0,0.7-0.1c0.2-0.1,0.4-0.2,0.5-0.3l-0.3-0.7c-0.1,0.1-0.2,0.2-0.4,0.3c-0.1,0.1-0.3,0.1-0.5,0.1
	c-0.2,0-0.4-0.1-0.5-0.2s-0.2-0.3-0.2-0.5v-5L173.1,46.4L173.1,46.4L173.1,46.4z M167.7,52.5v-2.6c0-0.4,0.1-0.8,0.2-1
	c0.2-0.2,0.3-0.4,0.6-0.5c0.2-0.1,0.5-0.2,0.7-0.2c0.3,0,0.6,0.1,0.9,0.3c0.2,0.2,0.3,0.6,0.3,1.1v2.9h0.8v-3.1
	c0-0.4-0.1-0.8-0.3-1.1c-0.2-0.3-0.4-0.5-0.7-0.6c-0.3-0.1-0.6-0.2-1-0.2c-0.2,0-0.5,0-0.7,0.1c-0.2,0.1-0.4,0.2-0.6,0.3
	c-0.2,0.2-0.3,0.4-0.4,0.6l0.1,0.1l-0.1-1.1h-0.7v4.9L167.7,52.5L167.7,52.5L167.7,52.5z M164.3,52.4c0.3-0.1,0.5-0.2,0.7-0.4
	c0.2-0.2,0.4-0.4,0.5-0.6l-0.6-0.4c-0.1,0.2-0.3,0.4-0.5,0.6s-0.5,0.2-0.9,0.2c-0.3,0-0.6-0.1-0.9-0.2c-0.2-0.1-0.4-0.4-0.6-0.6
	c-0.1-0.3-0.2-0.6-0.2-1c0-0.4,0.1-0.7,0.2-1c0.1-0.3,0.3-0.5,0.5-0.6c0.2-0.1,0.5-0.2,0.8-0.2c0.4,0,0.8,0.1,1,0.4
	c0.3,0.3,0.4,0.6,0.4,1.1l0.4-0.1h-3.6v0.7h4c0-0.1,0-0.2,0-0.2c0-0.1,0-0.2,0-0.3c0-0.4-0.1-0.8-0.3-1.1c-0.2-0.3-0.4-0.6-0.7-0.8
	s-0.7-0.3-1.2-0.3c-0.5,0-0.9,0.1-1.2,0.3c-0.4,0.2-0.6,0.5-0.8,0.9c-0.2,0.4-0.3,0.8-0.3,1.4s0.1,1,0.3,1.4
	c0.2,0.4,0.5,0.7,0.9,0.9c0.4,0.2,0.8,0.3,1.2,0.3C163.8,52.6,164.1,52.5,164.3,52.4L164.3,52.4L164.3,52.4z M153,52.5v-2.6
	c0-0.4,0.1-0.7,0.2-1c0.2-0.2,0.3-0.4,0.6-0.5c0.2-0.1,0.4-0.2,0.7-0.2c0.3,0,0.6,0.1,0.8,0.3s0.3,0.5,0.3,1v3.1h0.8v-2.7
	c0-0.4,0.1-0.7,0.2-0.9s0.3-0.4,0.5-0.6c0.2-0.1,0.5-0.2,0.7-0.2c0.3,0,0.6,0.1,0.8,0.3c0.2,0.2,0.3,0.5,0.3,1v3.1h0.8v-3.1
	c0-0.4-0.1-0.8-0.3-1.1c-0.2-0.3-0.4-0.5-0.7-0.6c-0.3-0.1-0.6-0.2-0.9-0.2c-0.2,0-0.4,0-0.6,0.1c-0.2,0.1-0.4,0.2-0.6,0.3
	c-0.2,0.1-0.3,0.3-0.4,0.5c-0.2-0.3-0.4-0.6-0.7-0.7c-0.3-0.2-0.6-0.2-1-0.2c-0.3,0-0.6,0.1-0.9,0.2s-0.5,0.4-0.7,0.7l0-0.8h-0.7
	v4.9L153,52.5L153,52.5L153,52.5z M149.7,52.4c0.3-0.1,0.5-0.2,0.7-0.4c0.2-0.2,0.4-0.4,0.5-0.6l-0.6-0.4c-0.1,0.2-0.3,0.4-0.5,0.6
	c-0.2,0.1-0.5,0.2-0.9,0.2c-0.3,0-0.6-0.1-0.9-0.2c-0.2-0.1-0.4-0.4-0.6-0.6c-0.1-0.3-0.2-0.6-0.2-1c0-0.4,0.1-0.7,0.2-1
	c0.1-0.3,0.3-0.5,0.5-0.6c0.2-0.1,0.5-0.2,0.8-0.2c0.4,0,0.8,0.1,1,0.4c0.3,0.3,0.4,0.6,0.4,1.1l0.4-0.1h-3.6v0.7h4
	c0-0.1,0-0.2,0-0.2c0-0.1,0-0.2,0-0.3c0-0.4-0.1-0.8-0.3-1.1c-0.2-0.3-0.4-0.6-0.7-0.8s-0.7-0.3-1.2-0.3c-0.5,0-0.9,0.1-1.2,0.3
	c-0.4,0.2-0.6,0.5-0.8,0.9c-0.2,0.4-0.3,0.8-0.3,1.4s0.1,1,0.3,1.4c0.2,0.4,0.5,0.7,0.9,0.9c0.4,0.2,0.8,0.3,1.2,0.3
	C149.1,52.6,149.4,52.5,149.7,52.4L149.7,52.4L149.7,52.4z M144.2,48.4c0.2,0.2,0.3,0.4,0.3,0.7c0,0.3-0.1,0.5-0.3,0.7
	c-0.2,0.2-0.5,0.3-0.9,0.3s-0.6-0.1-0.9-0.3c-0.2-0.2-0.3-0.4-0.3-0.7c0-0.3,0.1-0.6,0.3-0.7c0.2-0.2,0.5-0.3,0.9-0.3
	S144,48.2,144.2,48.4z M142.3,47.7c-0.3,0.1-0.5,0.3-0.7,0.6c-0.2,0.2-0.3,0.5-0.3,0.9c0,0.5,0.2,0.9,0.5,1.2
	c0.3,0.3,0.8,0.5,1.5,0.5c0.4,0,0.7-0.1,1-0.2c0.3-0.1,0.5-0.3,0.7-0.6c0.2-0.3,0.3-0.5,0.3-0.9c0-0.3-0.1-0.6-0.3-0.9
	c-0.2-0.2-0.4-0.4-0.7-0.6c-0.3-0.1-0.7-0.2-1-0.2S142.6,47.5,142.3,47.7L142.3,47.7z M142.3,53.7c-0.3-0.1-0.4-0.3-0.4-0.6
	c0-0.2,0.1-0.3,0.2-0.4c0.1-0.1,0.3-0.2,0.5-0.2h1.5c0.4,0,0.6,0.1,0.8,0.2c0.1,0.1,0.2,0.2,0.2,0.4c0,0.1-0.1,0.3-0.2,0.4
	c-0.1,0.1-0.3,0.2-0.5,0.3s-0.6,0.1-0.9,0.1C143,53.9,142.6,53.8,142.3,53.7L142.3,53.7L142.3,53.7z M142.9,51.8
	c-0.2,0-0.4,0-0.6-0.1s-0.2-0.2-0.2-0.4c0-0.2,0.1-0.3,0.2-0.4c0.1-0.1,0.4-0.2,0.7-0.2h0.1l-0.5-0.3c-0.4,0-0.7,0.2-0.9,0.4
	c-0.2,0.2-0.3,0.4-0.3,0.7c0,0.3,0.1,0.5,0.2,0.6c0.2,0.1,0.3,0.2,0.6,0.3l0.1-0.1c-0.4,0-0.7,0.1-0.9,0.3c-0.2,0.2-0.3,0.4-0.3,0.7
	c0,0.4,0.2,0.7,0.6,0.9c0.4,0.3,1,0.4,1.7,0.4c0.4,0,0.8-0.1,1.2-0.2c0.4-0.1,0.6-0.3,0.9-0.5c0.2-0.2,0.3-0.5,0.3-0.8
	c0-0.4-0.1-0.6-0.4-0.9c-0.3-0.2-0.6-0.3-1.1-0.3L142.9,51.8L142.9,51.8L142.9,51.8z M145.8,46.6L145.8,46.6c-0.3,0-0.5,0.1-0.7,0.2
	c-0.2,0.1-0.4,0.2-0.5,0.4c-0.1,0.2-0.2,0.4-0.2,0.7l0.5,0.2c0-0.3,0.1-0.5,0.3-0.6c0.2-0.1,0.4-0.2,0.7-0.2h0.1L145.8,46.6
	L145.8,46.6L145.8,46.6z M139.2,50.6c0,0.2,0,0.4-0.1,0.5c-0.1,0.2-0.2,0.3-0.3,0.4c-0.1,0.1-0.3,0.2-0.5,0.2
	c-0.2,0-0.4,0.1-0.5,0.1c-0.3,0-0.5-0.1-0.7-0.2c-0.2-0.1-0.2-0.3-0.2-0.5c0-0.2,0.1-0.4,0.2-0.5c0.2-0.1,0.4-0.2,0.7-0.3l1.6-0.3
	v-0.6l-1.9,0.4c-0.4,0.1-0.8,0.2-1,0.5c-0.2,0.2-0.4,0.5-0.4,0.9c0,0.3,0.1,0.5,0.2,0.7c0.1,0.2,0.3,0.3,0.6,0.4
	c0.2,0.1,0.5,0.1,0.8,0.1c0.2,0,0.5,0,0.7-0.1s0.4-0.2,0.6-0.4c0.2-0.2,0.3-0.4,0.4-0.6l-0.2,0v0.1c0,0.2,0,0.4,0.1,0.6
	c0.1,0.1,0.2,0.3,0.4,0.3s0.3,0.1,0.5,0.1c0.2,0,0.4,0,0.5-0.1l0-0.6c-0.1,0-0.2,0-0.4,0c-0.2,0-0.4-0.1-0.4-0.4v-2.4
	c0-0.4-0.1-0.7-0.3-0.9c-0.2-0.2-0.4-0.4-0.7-0.6c-0.3-0.1-0.6-0.2-1-0.2c-0.5,0-1,0.1-1.3,0.3c-0.4,0.2-0.6,0.5-0.7,0.9l0.6,0.4
	c0.1-0.3,0.3-0.6,0.5-0.7s0.5-0.2,0.9-0.2c0.4,0,0.6,0.1,0.8,0.3c0.2,0.2,0.3,0.5,0.3,0.9L139.2,50.6L139.2,50.6L139.2,50.6z
	 M131.2,52.5v-2.6c0-0.4,0.1-0.8,0.2-1c0.2-0.2,0.3-0.4,0.6-0.5c0.2-0.1,0.5-0.2,0.7-0.2c0.3,0,0.6,0.1,0.9,0.3
	c0.2,0.2,0.3,0.6,0.3,1.1v2.9h0.8v-3.1c0-0.4-0.1-0.8-0.3-1.1c-0.2-0.3-0.4-0.5-0.7-0.6c-0.3-0.1-0.6-0.2-1-0.2
	c-0.2,0-0.5,0-0.7,0.1c-0.2,0.1-0.4,0.2-0.6,0.3c-0.2,0.2-0.3,0.4-0.4,0.6l0.1,0.1l-0.1-1.1h-0.7v4.9L131.2,52.5L131.2,52.5
	L131.2,52.5z M128,50.6c0,0.2,0,0.4-0.1,0.5c-0.1,0.2-0.2,0.3-0.3,0.4s-0.3,0.2-0.5,0.2c-0.2,0-0.4,0.1-0.5,0.1
	c-0.3,0-0.5-0.1-0.7-0.2c-0.2-0.1-0.2-0.3-0.2-0.5c0-0.2,0.1-0.4,0.2-0.5c0.2-0.1,0.4-0.2,0.7-0.3l1.6-0.3v-0.6l-1.9,0.4
	c-0.4,0.1-0.8,0.2-1,0.5c-0.2,0.2-0.4,0.5-0.4,0.9c0,0.3,0.1,0.5,0.2,0.7c0.1,0.2,0.3,0.3,0.6,0.4c0.2,0.1,0.5,0.1,0.8,0.1
	c0.2,0,0.5,0,0.7-0.1s0.4-0.2,0.6-0.4c0.2-0.2,0.3-0.4,0.4-0.6l-0.2,0v0.1c0,0.2,0,0.4,0.1,0.6c0.1,0.1,0.2,0.3,0.4,0.3
	s0.3,0.1,0.5,0.1c0.2,0,0.4,0,0.5-0.1l0-0.6c-0.1,0-0.2,0-0.4,0c-0.2,0-0.4-0.1-0.4-0.4v-2.4c0-0.4-0.1-0.7-0.3-0.9
	s-0.4-0.4-0.7-0.6c-0.3-0.1-0.6-0.2-1-0.2c-0.5,0-1,0.1-1.3,0.3s-0.6,0.5-0.7,0.9l0.6,0.4c0.1-0.3,0.3-0.6,0.5-0.7s0.5-0.2,0.9-0.2
	c0.4,0,0.6,0.1,0.8,0.3c0.2,0.2,0.3,0.5,0.3,0.9L128,50.6L128,50.6L128,50.6z M122.2,46l-1.4,4l-0.5,1.6h0l-0.5-1.6l-1.4-3.9h-1.2
	v6.5h0.7v-4.1l-0.1-1.7h0l2.1,5.8h0.7l2.1-5.8h0l-0.1,1.7v4.1h0.7V46L122.2,46L122.2,46z M111,52.5v-2.7c0-0.4,0.1-0.7,0.2-0.9
	c0.1-0.2,0.3-0.4,0.5-0.5c0.2-0.1,0.4-0.2,0.6-0.2c0.2,0,0.3,0,0.4,0c0.1,0,0.2,0,0.2,0.1l0.1-0.7c-0.1,0-0.2-0.1-0.3-0.1
	c-0.1,0-0.2,0-0.3,0c-0.4,0-0.7,0.1-1,0.2c-0.3,0.2-0.5,0.4-0.6,0.7l-0.1-0.8h-0.6v4.9L111,52.5C111,52.5,111,52.5,111,52.5z
	 M107.4,48.4c0.2,0.2,0.4,0.4,0.5,0.6s0.2,0.6,0.2,1c0,0.4-0.1,0.7-0.2,1c-0.1,0.3-0.3,0.5-0.5,0.6s-0.5,0.2-0.9,0.2
	s-0.6-0.1-0.9-0.2c-0.2-0.2-0.4-0.4-0.5-0.6c-0.1-0.3-0.2-0.6-0.2-1c0-0.4,0.1-0.7,0.2-1c0.1-0.3,0.3-0.5,0.5-0.6
	c0.2-0.2,0.5-0.2,0.9-0.2S107.2,48.2,107.4,48.4z M105.3,47.8c-0.4,0.2-0.6,0.5-0.8,0.9c-0.2,0.4-0.3,0.8-0.3,1.4s0.1,1,0.3,1.4
	c0.2,0.4,0.5,0.7,0.8,0.9c0.4,0.2,0.8,0.3,1.2,0.3c0.5,0,0.9-0.1,1.2-0.3c0.4-0.2,0.6-0.5,0.8-0.9c0.2-0.4,0.3-0.8,0.3-1.4
	s-0.1-1-0.3-1.4c-0.2-0.4-0.5-0.7-0.8-0.9c-0.4-0.2-0.8-0.3-1.2-0.3C106.1,47.4,105.7,47.6,105.3,47.8z M100,47.5v0.7h3.6v-0.7H100z
	 M101,46.4v4.9c0,0.3,0.1,0.6,0.2,0.8c0.1,0.2,0.3,0.3,0.5,0.4s0.4,0.1,0.7,0.1c0.3,0,0.5,0,0.7-0.1c0.2-0.1,0.4-0.2,0.5-0.3
	l-0.3-0.7c-0.1,0.1-0.2,0.2-0.4,0.3c-0.1,0.1-0.3,0.1-0.5,0.1c-0.2,0-0.4-0.1-0.5-0.2s-0.2-0.3-0.2-0.5v-5L101,46.4L101,46.4
	L101,46.4z M96.1,47.8c-0.4,0.2-0.6,0.5-0.8,0.9C95,49,94.9,49.5,94.9,50s0.1,1,0.3,1.4c0.2,0.4,0.5,0.7,0.8,0.9
	c0.4,0.2,0.8,0.3,1.2,0.3c0.3,0,0.7-0.1,0.9-0.2c0.3-0.1,0.5-0.3,0.7-0.5c0.2-0.2,0.3-0.5,0.5-0.8l-0.7-0.3c0,0.2-0.1,0.4-0.3,0.6
	c-0.1,0.2-0.3,0.3-0.5,0.3c-0.2,0.1-0.4,0.1-0.7,0.1c-0.3,0-0.6-0.1-0.8-0.2S96,51.3,95.9,51c-0.1-0.3-0.2-0.6-0.2-1
	c0-0.4,0.1-0.7,0.2-1c0.1-0.3,0.3-0.5,0.5-0.6c0.2-0.1,0.5-0.2,0.8-0.2c0.3,0,0.6,0.1,0.8,0.3c0.2,0.2,0.4,0.4,0.5,0.7l0.7-0.4
	c-0.1-0.3-0.3-0.5-0.5-0.7c-0.2-0.2-0.4-0.3-0.7-0.5c-0.3-0.1-0.6-0.2-0.9-0.2C96.8,47.4,96.4,47.5,96.1,47.8L96.1,47.8L96.1,47.8z
	 M92.7,52.4c0.3-0.1,0.5-0.2,0.7-0.4c0.2-0.2,0.4-0.4,0.5-0.6l-0.6-0.4c-0.1,0.2-0.3,0.4-0.5,0.6s-0.5,0.2-0.9,0.2
	c-0.3,0-0.6-0.1-0.9-0.2c-0.2-0.1-0.4-0.4-0.6-0.6c-0.1-0.3-0.2-0.6-0.2-1c0-0.4,0.1-0.7,0.2-1c0.1-0.3,0.3-0.5,0.5-0.6
	c0.2-0.1,0.5-0.2,0.8-0.2c0.4,0,0.8,0.1,1,0.4c0.3,0.3,0.4,0.6,0.4,1.1l0.4-0.1H90v0.7h4c0-0.1,0-0.2,0-0.2c0-0.1,0-0.2,0-0.3
	c0-0.4-0.1-0.8-0.3-1.1c-0.2-0.3-0.4-0.6-0.7-0.8s-0.7-0.3-1.2-0.3c-0.5,0-0.9,0.1-1.2,0.3c-0.4,0.2-0.6,0.5-0.8,0.9
	c-0.2,0.4-0.3,0.8-0.3,1.4s0.1,1,0.3,1.4c0.2,0.4,0.5,0.7,0.9,0.9c0.4,0.2,0.8,0.3,1.2,0.3C92.2,52.6,92.5,52.5,92.7,52.4L92.7,52.4
	L92.7,52.4z M84.6,46.1c-0.4,0.2-0.6,0.4-0.8,0.7c-0.2,0.3-0.3,0.6-0.3,1c0,0.3,0.1,0.5,0.2,0.7c0.1,0.2,0.3,0.4,0.5,0.6
	c0.2,0.2,0.6,0.3,1,0.4l1.5,0.3c0.4,0.1,0.6,0.2,0.8,0.4c0.1,0.2,0.2,0.4,0.2,0.6c0,0.2-0.1,0.4-0.2,0.6c-0.1,0.2-0.3,0.3-0.6,0.4
	s-0.5,0.1-0.9,0.1c-0.4,0-0.7-0.1-1-0.2c-0.3-0.1-0.5-0.3-0.7-0.4c-0.2-0.2-0.4-0.4-0.5-0.7l-0.7,0.6c0.2,0.3,0.4,0.5,0.6,0.7
	c0.3,0.2,0.6,0.4,0.9,0.5c0.4,0.1,0.8,0.2,1.2,0.2c0.5,0,0.9-0.1,1.3-0.2c0.4-0.2,0.7-0.4,0.9-0.7s0.3-0.6,0.3-1
	c0-0.4-0.1-0.8-0.4-1c-0.2-0.3-0.7-0.5-1.3-0.6l-1.4-0.3c-0.4-0.1-0.7-0.2-0.9-0.4c-0.1-0.2-0.2-0.4-0.2-0.6c0-0.2,0.1-0.4,0.2-0.5
	c0.1-0.2,0.3-0.3,0.5-0.4s0.5-0.1,0.9-0.1c0.4,0,0.8,0.1,1.1,0.3c0.3,0.2,0.6,0.5,0.8,0.9l0.7-0.5c-0.3-0.5-0.6-0.8-1-1
	c-0.4-0.2-0.9-0.3-1.5-0.3C85.4,45.9,85,46,84.6,46.1L84.6,46.1L84.6,46.1z M79.1,47.5L78,50.7l-0.4,1l-0.3-0.9l-1.2-3.2h-0.9
	l1.6,3.7l0.5,1.2L77,53.1c-0.1,0.3-0.3,0.5-0.4,0.6c-0.2,0.1-0.3,0.2-0.5,0.2c-0.1,0-0.3,0-0.4-0.1c-0.1-0.1-0.3-0.1-0.4-0.3
	L75,54.2c0.1,0.1,0.3,0.2,0.5,0.3s0.4,0.1,0.6,0.1c0.2,0,0.4,0,0.6-0.1c0.2-0.1,0.3-0.2,0.5-0.4s0.3-0.4,0.4-0.8l2.3-5.7L79.1,47.5
	L79.1,47.5z M73.4,48.4c0.2,0.2,0.3,0.4,0.3,0.7c0,0.3-0.1,0.5-0.3,0.7c-0.2,0.2-0.5,0.3-0.9,0.3s-0.6-0.1-0.9-0.3
	c-0.2-0.2-0.3-0.4-0.3-0.7c0-0.3,0.1-0.6,0.3-0.7c0.2-0.2,0.5-0.3,0.9-0.3S73.2,48.2,73.4,48.4z M71.5,47.7
	c-0.3,0.1-0.5,0.3-0.7,0.6c-0.2,0.2-0.3,0.5-0.3,0.9c0,0.5,0.2,0.9,0.5,1.2c0.3,0.3,0.8,0.5,1.5,0.5c0.4,0,0.7-0.1,1-0.2
	c0.3-0.1,0.5-0.3,0.7-0.6c0.2-0.3,0.3-0.5,0.3-0.9c0-0.3-0.1-0.6-0.3-0.9c-0.2-0.2-0.4-0.4-0.7-0.6c-0.3-0.1-0.7-0.2-1-0.2
	S71.8,47.5,71.5,47.7L71.5,47.7L71.5,47.7z M71.5,53.7c-0.3-0.1-0.4-0.3-0.4-0.6c0-0.2,0.1-0.3,0.2-0.4c0.1-0.1,0.3-0.2,0.5-0.2h1.5
	c0.4,0,0.6,0.1,0.8,0.2c0.1,0.1,0.2,0.2,0.2,0.4c0,0.1-0.1,0.3-0.2,0.4s-0.3,0.2-0.5,0.3s-0.6,0.1-0.9,0.1
	C72.1,53.9,71.7,53.8,71.5,53.7L71.5,53.7L71.5,53.7z M72.1,51.8c-0.2,0-0.4,0-0.6-0.1s-0.2-0.2-0.2-0.4c0-0.2,0.1-0.3,0.2-0.4
	s0.4-0.2,0.7-0.2h0.1l-0.5-0.3c-0.4,0-0.7,0.2-0.9,0.4c-0.2,0.2-0.3,0.4-0.3,0.7c0,0.3,0.1,0.5,0.2,0.6c0.2,0.1,0.3,0.2,0.6,0.3
	l0.1-0.1c-0.4,0-0.7,0.1-0.9,0.3c-0.2,0.2-0.3,0.4-0.3,0.7c0,0.4,0.2,0.7,0.6,0.9c0.4,0.3,1,0.4,1.7,0.4c0.4,0,0.8-0.1,1.2-0.2
	c0.4-0.1,0.6-0.3,0.9-0.5c0.2-0.2,0.3-0.5,0.3-0.8c0-0.4-0.1-0.6-0.4-0.9c-0.3-0.2-0.6-0.3-1.1-0.3L72.1,51.8L72.1,51.8L72.1,51.8z
	 M75,46.6L75,46.6c-0.3,0-0.5,0.1-0.7,0.2c-0.2,0.1-0.4,0.2-0.5,0.4c-0.1,0.2-0.2,0.4-0.2,0.7l0.5,0.2c0-0.3,0.1-0.5,0.3-0.6
	c0.2-0.1,0.4-0.2,0.7-0.2h0.1L75,46.6L75,46.6L75,46.6z M68.1,52.5v-2.7c0-0.4,0.1-0.7,0.2-0.9c0.1-0.2,0.3-0.4,0.5-0.5
	s0.4-0.2,0.6-0.2c0.2,0,0.3,0,0.4,0c0.1,0,0.2,0,0.2,0.1l0.1-0.7c-0.1,0-0.2-0.1-0.3-0.1c-0.1,0-0.2,0-0.3,0c-0.4,0-0.7,0.1-1,0.2
	c-0.3,0.2-0.5,0.4-0.6,0.7l-0.1-0.8h-0.6v4.9L68.1,52.5C68.1,52.5,68.1,52.5,68.1,52.5z M64.8,52.4c0.3-0.1,0.5-0.2,0.7-0.4
	c0.2-0.2,0.4-0.4,0.5-0.6l-0.6-0.4c-0.1,0.2-0.3,0.4-0.5,0.6s-0.5,0.2-0.9,0.2c-0.3,0-0.6-0.1-0.9-0.2c-0.2-0.1-0.4-0.4-0.6-0.6
	c-0.1-0.3-0.2-0.6-0.2-1c0-0.4,0.1-0.7,0.2-1c0.1-0.3,0.3-0.5,0.5-0.6c0.2-0.1,0.5-0.2,0.8-0.2c0.4,0,0.8,0.1,1,0.4
	c0.3,0.3,0.4,0.6,0.4,1.1l0.4-0.1H62v0.7h4c0-0.1,0-0.2,0-0.2c0-0.1,0-0.2,0-0.3c0-0.4-0.1-0.8-0.3-1.1c-0.2-0.3-0.4-0.6-0.7-0.8
	s-0.7-0.3-1.2-0.3c-0.5,0-0.9,0.1-1.2,0.3c-0.4,0.2-0.6,0.5-0.8,0.9c-0.2,0.4-0.3,0.8-0.3,1.4s0.1,1,0.3,1.4
	c0.2,0.4,0.5,0.7,0.9,0.9c0.4,0.2,0.8,0.3,1.2,0.3C64.2,52.6,64.5,52.5,64.8,52.4L64.8,52.4L64.8,52.4z M56.7,52.5v-2.6
	c0-0.4,0.1-0.8,0.2-1c0.2-0.2,0.3-0.4,0.6-0.5c0.2-0.1,0.5-0.2,0.7-0.2c0.3,0,0.6,0.1,0.9,0.3c0.2,0.2,0.3,0.6,0.3,1.1v2.9h0.8v-3.1
	c0-0.4-0.1-0.8-0.3-1.1c-0.2-0.3-0.4-0.5-0.7-0.6c-0.3-0.1-0.6-0.2-1-0.2c-0.2,0-0.5,0-0.7,0.1c-0.2,0.1-0.4,0.2-0.6,0.3
	c-0.2,0.2-0.3,0.4-0.4,0.6l0.1,0.1l-0.1-1.1h-0.7v4.9L56.7,52.5C56.7,52.5,56.7,52.5,56.7,52.5z M54.7,52.5v-0.7h-3.9v-2.2h2.9v-0.7
	h-2.9v-2.1h3.8V46H50v6.5L54.7,52.5L54.7,52.5z"/>
<path class="st1" d="M132.6,63v-2.6c0-0.4,0.1-0.7,0.2-1c0.2-0.2,0.3-0.4,0.6-0.5c0.2-0.1,0.4-0.2,0.7-0.2c0.3,0,0.6,0.1,0.8,0.3
	c0.2,0.2,0.3,0.5,0.3,1V63h0.8v-2.7c0-0.4,0.1-0.7,0.2-0.9s0.3-0.4,0.5-0.6c0.2-0.1,0.5-0.2,0.7-0.2c0.3,0,0.6,0.1,0.8,0.3
	c0.2,0.2,0.3,0.5,0.3,1V63h0.8v-3.1c0-0.4-0.1-0.8-0.3-1.1c-0.2-0.3-0.4-0.5-0.7-0.6c-0.3-0.1-0.6-0.2-0.9-0.2c-0.2,0-0.4,0-0.6,0.1
	c-0.2,0.1-0.4,0.2-0.6,0.3c-0.2,0.1-0.3,0.3-0.4,0.5c-0.2-0.3-0.4-0.6-0.7-0.7c-0.3-0.2-0.6-0.2-1-0.2c-0.3,0-0.6,0.1-0.9,0.2
	s-0.5,0.4-0.7,0.7l0-0.8h-0.7V63L132.6,63L132.6,63L132.6,63z M129.3,61.2c0,0.2,0,0.4-0.1,0.5c-0.1,0.2-0.2,0.3-0.3,0.4
	c-0.1,0.1-0.3,0.2-0.5,0.2c-0.2,0-0.4,0.1-0.5,0.1c-0.3,0-0.5-0.1-0.7-0.2c-0.2-0.1-0.2-0.3-0.2-0.5c0-0.2,0.1-0.4,0.2-0.5
	s0.4-0.2,0.7-0.3l1.6-0.3V60l-1.9,0.4c-0.4,0.1-0.8,0.2-1,0.5c-0.2,0.2-0.4,0.5-0.4,0.9c0,0.3,0.1,0.5,0.2,0.7
	c0.1,0.2,0.3,0.3,0.6,0.4c0.2,0.1,0.5,0.1,0.8,0.1c0.2,0,0.5,0,0.7-0.1s0.4-0.2,0.6-0.4c0.2-0.2,0.3-0.4,0.4-0.6l-0.2,0v0.1
	c0,0.2,0,0.4,0.1,0.6c0.1,0.1,0.2,0.3,0.4,0.3s0.3,0.1,0.5,0.1c0.2,0,0.4,0,0.5-0.1l0-0.6c-0.1,0-0.2,0-0.4,0
	c-0.2,0-0.4-0.1-0.4-0.4v-2.4c0-0.4-0.1-0.7-0.3-0.9c-0.2-0.2-0.4-0.4-0.7-0.6c-0.3-0.1-0.6-0.2-1-0.2c-0.5,0-1,0.1-1.3,0.3
	s-0.6,0.5-0.7,0.9l0.6,0.4c0.1-0.3,0.3-0.6,0.5-0.7s0.5-0.2,0.9-0.2c0.4,0,0.6,0.1,0.8,0.3c0.2,0.2,0.3,0.5,0.3,0.9L129.3,61.2
	L129.3,61.2L129.3,61.2z M123.6,63v-2.7c0-0.4,0.1-0.7,0.2-0.9c0.1-0.2,0.3-0.4,0.5-0.5s0.4-0.2,0.6-0.2c0.2,0,0.3,0,0.4,0
	c0.1,0,0.2,0,0.2,0.1l0.1-0.7c-0.1,0-0.2-0.1-0.3-0.1c-0.1,0-0.2,0-0.3,0c-0.4,0-0.7,0.1-1,0.2c-0.3,0.2-0.5,0.4-0.6,0.7l-0.1-0.8
	h-0.6V63L123.6,63L123.6,63L123.6,63z M120.3,58.9c0.2,0.2,0.3,0.4,0.3,0.7c0,0.3-0.1,0.5-0.3,0.7s-0.5,0.3-0.9,0.3
	s-0.6-0.1-0.9-0.3c-0.2-0.2-0.3-0.4-0.3-0.7c0-0.3,0.1-0.6,0.3-0.7c0.2-0.2,0.5-0.3,0.9-0.3S120.1,58.7,120.3,58.9z M118.4,58.2
	c-0.3,0.1-0.5,0.3-0.7,0.6c-0.2,0.2-0.3,0.5-0.3,0.9c0,0.5,0.2,0.9,0.5,1.2c0.3,0.3,0.8,0.5,1.5,0.5c0.4,0,0.7-0.1,1-0.2
	c0.3-0.1,0.5-0.3,0.7-0.6c0.2-0.3,0.3-0.5,0.3-0.9c0-0.3-0.1-0.6-0.3-0.9c-0.2-0.2-0.4-0.4-0.7-0.6c-0.3-0.1-0.7-0.2-1-0.2
	S118.7,58,118.4,58.2L118.4,58.2z M118.3,64.2c-0.3-0.1-0.4-0.3-0.4-0.6c0-0.2,0.1-0.3,0.2-0.4c0.1-0.1,0.3-0.2,0.5-0.2h1.5
	c0.4,0,0.6,0.1,0.8,0.2c0.1,0.1,0.2,0.2,0.2,0.4c0,0.1-0.1,0.3-0.2,0.4c-0.1,0.1-0.3,0.2-0.5,0.3s-0.6,0.1-0.9,0.1
	C119,64.4,118.6,64.4,118.3,64.2L118.3,64.2L118.3,64.2z M119,62.4c-0.2,0-0.4,0-0.6-0.1s-0.2-0.2-0.2-0.4c0-0.2,0.1-0.3,0.2-0.4
	s0.4-0.2,0.7-0.2h0.1l-0.5-0.3c-0.4,0-0.7,0.2-0.9,0.4c-0.2,0.2-0.3,0.4-0.3,0.7c0,0.3,0.1,0.5,0.2,0.6c0.2,0.1,0.3,0.2,0.6,0.3
	l0.1-0.1c-0.4,0-0.7,0.1-0.9,0.3s-0.3,0.4-0.3,0.7c0,0.4,0.2,0.7,0.6,0.9c0.4,0.3,1,0.4,1.7,0.4c0.4,0,0.8-0.1,1.2-0.2
	c0.4-0.1,0.6-0.3,0.9-0.5c0.2-0.2,0.3-0.5,0.3-0.8c0-0.4-0.1-0.6-0.4-0.9c-0.3-0.2-0.6-0.3-1.1-0.3L119,62.4L119,62.4L119,62.4z
	 M121.9,57.2L121.9,57.2c-0.3,0-0.5,0.1-0.7,0.2c-0.2,0.1-0.4,0.2-0.5,0.4c-0.1,0.2-0.2,0.4-0.2,0.7l0.5,0.2c0-0.3,0.1-0.5,0.3-0.6
	c0.2-0.1,0.4-0.2,0.7-0.2h0.1L121.9,57.2L121.9,57.2z M114.9,58.9c0.2,0.2,0.4,0.4,0.5,0.6c0.1,0.3,0.2,0.6,0.2,1
	c0,0.4-0.1,0.7-0.2,1c-0.1,0.3-0.3,0.5-0.5,0.6s-0.5,0.2-0.9,0.2s-0.6-0.1-0.9-0.2c-0.2-0.2-0.4-0.4-0.5-0.6c-0.1-0.3-0.2-0.6-0.2-1
	c0-0.4,0.1-0.7,0.2-1c0.1-0.3,0.3-0.5,0.5-0.6c0.2-0.2,0.5-0.2,0.9-0.2S114.7,58.7,114.9,58.9z M112.9,58.3
	c-0.4,0.2-0.6,0.5-0.8,0.9c-0.2,0.4-0.3,0.8-0.3,1.4s0.1,1,0.3,1.4c0.2,0.4,0.5,0.7,0.8,0.9c0.4,0.2,0.8,0.3,1.2,0.3
	c0.5,0,0.9-0.1,1.2-0.3c0.4-0.2,0.6-0.5,0.8-0.9c0.2-0.4,0.3-0.8,0.3-1.4s-0.1-1-0.3-1.4c-0.2-0.4-0.5-0.7-0.8-0.9s-0.8-0.3-1.2-0.3
	C113.6,58,113.2,58.1,112.9,58.3z M109.2,63v-2.7c0-0.4,0.1-0.7,0.2-0.9c0.1-0.2,0.3-0.4,0.5-0.5c0.2-0.1,0.4-0.2,0.6-0.2
	c0.2,0,0.3,0,0.4,0c0.1,0,0.2,0,0.2,0.1l0.1-0.7c-0.1,0-0.2-0.1-0.3-0.1c-0.1,0-0.2,0-0.3,0c-0.4,0-0.7,0.1-1,0.2
	c-0.3,0.2-0.5,0.4-0.6,0.7l-0.1-0.8h-0.6V63L109.2,63C109.2,63,109.2,63,109.2,63z M103.5,59.7v-2.5h1.4c0.5,0,0.9,0.1,1.1,0.3
	c0.2,0.2,0.4,0.5,0.4,0.9c0,0.4-0.1,0.7-0.4,0.9c-0.2,0.2-0.6,0.3-1.1,0.3L103.5,59.7C103.5,59.7,103.5,59.7,103.5,59.7z
	 M102.7,56.5V63h0.8v-2.5h1.5c0.4,0,0.8-0.1,1.1-0.2c0.3-0.2,0.6-0.4,0.8-0.7c0.2-0.3,0.3-0.6,0.3-1.1s-0.1-0.8-0.3-1.1
	c-0.2-0.3-0.4-0.5-0.8-0.7c-0.3-0.2-0.7-0.2-1.1-0.2L102.7,56.5L102.7,56.5L102.7,56.5z M96.9,62.9c0.3-0.1,0.5-0.2,0.7-0.4
	c0.2-0.2,0.4-0.4,0.5-0.6l-0.6-0.4c-0.1,0.2-0.3,0.4-0.5,0.6s-0.5,0.2-0.9,0.2c-0.3,0-0.6-0.1-0.9-0.2c-0.2-0.1-0.4-0.4-0.6-0.6
	c-0.1-0.3-0.2-0.6-0.2-1c0-0.4,0.1-0.7,0.2-1c0.1-0.3,0.3-0.5,0.5-0.6c0.2-0.1,0.5-0.2,0.8-0.2c0.4,0,0.8,0.1,1,0.4
	c0.3,0.3,0.4,0.6,0.4,1.1l0.4-0.1h-3.6v0.7h4c0-0.1,0-0.2,0-0.2c0-0.1,0-0.2,0-0.3c0-0.4-0.1-0.8-0.3-1.1c-0.2-0.3-0.4-0.6-0.7-0.8
	S96.4,58,96,58c-0.5,0-0.9,0.1-1.2,0.3c-0.4,0.2-0.6,0.5-0.8,0.9c-0.2,0.4-0.3,0.8-0.3,1.4s0.1,1,0.3,1.4c0.2,0.4,0.5,0.7,0.9,0.9
	c0.4,0.2,0.8,0.3,1.2,0.3C96.3,63.1,96.6,63,96.9,62.9L96.9,62.9L96.9,62.9z M89.5,58.3c-0.4,0.2-0.6,0.5-0.8,0.9
	c-0.2,0.4-0.3,0.8-0.3,1.4s0.1,1,0.3,1.4c0.2,0.4,0.5,0.7,0.8,0.9c0.4,0.2,0.8,0.3,1.2,0.3c0.3,0,0.7-0.1,0.9-0.2
	c0.3-0.1,0.5-0.3,0.7-0.5c0.2-0.2,0.3-0.5,0.5-0.8L92,61.4c0,0.2-0.1,0.4-0.3,0.6c-0.1,0.2-0.3,0.3-0.5,0.3
	c-0.2,0.1-0.4,0.1-0.7,0.1c-0.3,0-0.6-0.1-0.8-0.2c-0.2-0.1-0.4-0.4-0.5-0.6c-0.1-0.3-0.2-0.6-0.2-1c0-0.4,0.1-0.7,0.2-1
	c0.1-0.3,0.3-0.5,0.5-0.6c0.2-0.1,0.5-0.2,0.8-0.2c0.3,0,0.6,0.1,0.8,0.3c0.2,0.2,0.4,0.4,0.5,0.7l0.7-0.4c-0.1-0.3-0.3-0.5-0.5-0.7
	c-0.2-0.2-0.4-0.3-0.7-0.5C91.3,58,91,58,90.7,58C90.2,58,89.8,58.1,89.5,58.3L89.5,58.3L89.5,58.3z M83.6,63v-2.6
	c0-0.4,0.1-0.8,0.2-1c0.2-0.2,0.3-0.4,0.6-0.5c0.2-0.1,0.5-0.2,0.7-0.2c0.3,0,0.6,0.1,0.9,0.3c0.2,0.2,0.3,0.6,0.3,1.1V63h0.8v-3.1
	c0-0.4-0.1-0.8-0.3-1.1c-0.2-0.3-0.4-0.5-0.7-0.6c-0.3-0.1-0.6-0.2-1-0.2c-0.2,0-0.5,0-0.7,0.1c-0.2,0.1-0.4,0.2-0.6,0.3
	c-0.2,0.2-0.3,0.4-0.4,0.6l0.1,0.1l-0.1-1.1h-0.7V63L83.6,63L83.6,63L83.6,63z M80.3,61.2c0,0.2,0,0.4-0.1,0.5
	c-0.1,0.2-0.2,0.3-0.3,0.4c-0.1,0.1-0.3,0.2-0.5,0.2c-0.2,0-0.4,0.1-0.5,0.1c-0.3,0-0.5-0.1-0.7-0.2c-0.2-0.1-0.2-0.3-0.2-0.5
	c0-0.2,0.1-0.4,0.2-0.5s0.4-0.2,0.7-0.3l1.6-0.3V60l-1.9,0.4c-0.4,0.1-0.8,0.2-1,0.5c-0.2,0.2-0.4,0.5-0.4,0.9
	c0,0.3,0.1,0.5,0.2,0.7c0.1,0.2,0.3,0.3,0.6,0.4c0.2,0.1,0.5,0.1,0.8,0.1c0.2,0,0.5,0,0.7-0.1s0.4-0.2,0.6-0.4
	c0.2-0.2,0.3-0.4,0.4-0.6l-0.2,0v0.1c0,0.2,0,0.4,0.1,0.6c0.1,0.1,0.2,0.3,0.4,0.3c0.2,0.1,0.3,0.1,0.5,0.1c0.2,0,0.4,0,0.5-0.1
	l0-0.6c-0.1,0-0.2,0-0.4,0c-0.2,0-0.4-0.1-0.4-0.4v-2.4c0-0.4-0.1-0.7-0.3-0.9c-0.2-0.2-0.4-0.4-0.7-0.6c-0.3-0.1-0.6-0.2-1-0.2
	c-0.5,0-1,0.1-1.3,0.3c-0.4,0.2-0.6,0.5-0.7,0.9l0.6,0.4c0.1-0.3,0.3-0.6,0.5-0.7s0.5-0.2,0.9-0.2c0.4,0,0.6,0.1,0.8,0.3
	c0.2,0.2,0.3,0.5,0.3,0.9L80.3,61.2L80.3,61.2L80.3,61.2z M72.9,58.1v0.7h3.6v-0.7L72.9,58.1L72.9,58.1z M73.9,56.9v4.9
	c0,0.3,0.1,0.6,0.2,0.8c0.1,0.2,0.3,0.3,0.5,0.4s0.4,0.1,0.7,0.1c0.3,0,0.5,0,0.7-0.1c0.2-0.1,0.4-0.2,0.5-0.3L76.2,62
	c-0.1,0.1-0.2,0.2-0.4,0.3c-0.1,0.1-0.3,0.1-0.5,0.1c-0.2,0-0.4-0.1-0.5-0.2s-0.2-0.3-0.2-0.5v-5L73.9,56.9L73.9,56.9L73.9,56.9z
	 M71.3,62.9c0.3-0.1,0.5-0.3,0.7-0.5c0.2-0.2,0.2-0.5,0.2-0.8c0-0.3-0.1-0.6-0.3-0.8c-0.2-0.2-0.5-0.4-1-0.5l-1.2-0.3
	c-0.3-0.1-0.5-0.1-0.6-0.3c-0.1-0.1-0.1-0.3-0.1-0.4c0-0.1,0-0.3,0.1-0.4c0.1-0.1,0.2-0.2,0.4-0.3c0.2-0.1,0.4-0.1,0.6-0.1
	c0.3,0,0.5,0.1,0.8,0.2c0.2,0.1,0.4,0.3,0.5,0.6l0.7-0.4c-0.2-0.3-0.4-0.6-0.7-0.8c-0.3-0.2-0.7-0.3-1.2-0.3c-0.4,0-0.7,0.1-1,0.2
	c-0.3,0.1-0.5,0.3-0.7,0.5c-0.2,0.2-0.2,0.5-0.2,0.7c0,0.3,0.1,0.6,0.3,0.9c0.2,0.2,0.5,0.4,1,0.5l1.2,0.2c0.2,0.1,0.4,0.1,0.5,0.3
	c0.1,0.1,0.1,0.2,0.1,0.4c0,0.2-0.1,0.4-0.3,0.5c-0.2,0.1-0.5,0.2-0.8,0.2c-0.4,0-0.7-0.1-1-0.3c-0.3-0.2-0.5-0.4-0.6-0.7L68,61.9
	c0.2,0.4,0.5,0.7,0.9,0.9c0.4,0.2,0.8,0.3,1.3,0.3C70.6,63.1,71,63,71.3,62.9L71.3,62.9L71.3,62.9z M66.1,58.1V63h0.8v-4.9H66.1z
	 M66.9,57c0.1-0.1,0.2-0.3,0.2-0.4s-0.1-0.3-0.2-0.4c-0.1-0.1-0.3-0.2-0.4-0.2S66.1,56,66,56.1s-0.2,0.3-0.2,0.4s0.1,0.3,0.2,0.4
	c0.1,0.1,0.3,0.2,0.4,0.2S66.8,57.1,66.9,57z M63.9,62.9c0.3-0.1,0.5-0.3,0.7-0.5c0.2-0.2,0.2-0.5,0.2-0.8c0-0.3-0.1-0.6-0.3-0.8
	c-0.2-0.2-0.5-0.4-1-0.5l-1.2-0.3c-0.3-0.1-0.5-0.1-0.6-0.3c-0.1-0.1-0.1-0.3-0.1-0.4c0-0.1,0-0.3,0.1-0.4c0.1-0.1,0.2-0.2,0.4-0.3
	c0.2-0.1,0.4-0.1,0.6-0.1c0.3,0,0.5,0.1,0.8,0.2c0.2,0.1,0.4,0.3,0.5,0.6l0.7-0.4c-0.2-0.3-0.4-0.6-0.7-0.8
	c-0.3-0.2-0.7-0.3-1.2-0.3c-0.4,0-0.7,0.1-1,0.2c-0.3,0.1-0.5,0.3-0.7,0.5c-0.2,0.2-0.2,0.5-0.2,0.7c0,0.3,0.1,0.6,0.3,0.9
	c0.2,0.2,0.5,0.4,1,0.5l1.2,0.2c0.2,0.1,0.4,0.1,0.5,0.3c0.1,0.1,0.1,0.2,0.1,0.4c0,0.2-0.1,0.4-0.3,0.5c-0.2,0.1-0.5,0.2-0.8,0.2
	c-0.4,0-0.7-0.1-1-0.3c-0.3-0.2-0.5-0.4-0.6-0.7l-0.7,0.5c0.2,0.4,0.5,0.7,0.9,0.9c0.4,0.2,0.8,0.3,1.3,0.3
	C63.2,63.1,63.6,63,63.9,62.9L63.9,62.9L63.9,62.9z M58.9,62.9c0.3-0.1,0.5-0.3,0.7-0.5c0.2-0.2,0.2-0.5,0.2-0.8
	c0-0.3-0.1-0.6-0.3-0.8c-0.2-0.2-0.5-0.4-1-0.5l-1.2-0.3c-0.3-0.1-0.5-0.1-0.6-0.3c-0.1-0.1-0.1-0.3-0.1-0.4c0-0.1,0-0.3,0.1-0.4
	c0.1-0.1,0.2-0.2,0.4-0.3c0.2-0.1,0.4-0.1,0.6-0.1c0.3,0,0.5,0.1,0.8,0.2c0.2,0.1,0.4,0.3,0.5,0.6l0.7-0.4c-0.2-0.3-0.4-0.6-0.7-0.8
	c-0.3-0.2-0.7-0.3-1.2-0.3c-0.4,0-0.7,0.1-1,0.2c-0.3,0.1-0.5,0.3-0.7,0.5c-0.2,0.2-0.2,0.5-0.2,0.7c0,0.3,0.1,0.6,0.3,0.9
	c0.2,0.2,0.5,0.4,1,0.5l1.2,0.2c0.2,0.1,0.4,0.1,0.5,0.3c0.1,0.1,0.1,0.2,0.1,0.4c0,0.2-0.1,0.4-0.3,0.5c-0.2,0.1-0.5,0.2-0.8,0.2
	c-0.4,0-0.7-0.1-1-0.3c-0.3-0.2-0.5-0.4-0.6-0.7l-0.7,0.5c0.2,0.4,0.5,0.7,0.9,0.9c0.4,0.2,0.8,0.3,1.3,0.3
	C58.3,63.1,58.6,63,58.9,62.9L58.9,62.9L58.9,62.9z M52.2,57.3l1.2,3.2H51L52.2,57.3L52.2,57.3z M52.7,56.5h-0.9L49.2,63H50l0.7-1.8
	h2.9l0.7,1.8h0.8L52.7,56.5C52.7,56.5,52.7,56.5,52.7,56.5z"/>
</svg>
